@startuml JMonopoly

Property *-- Player
PropertyPurchaseResult *-- Player

PropertyCard *-- Property

Space *-- RollResult

SpaceType *-- Space

CardType *-- Card

Player *-- GameHelper
RollResult *-- GameHelper

Player *-- Players

PropertyCard *-- Spaces
Space *-- Spaces
SpaceType *-- Spaces

ActionCard *-- WildcardHelper

Player *-- AllPropertiesDialog

Player *-- BuildDialog

Player *-- PropertySpaceDialog
Property *-- PropertySpaceDialog

enum CardType {
    +PROPERTY
    +WILD
}

enum PropertyPurchaseResult {
    +NOT_PURCHASED
    +PURCHASED
    +GROUP_PURCHASED
}

enum SpaceType {
    +GO
    +PROPERTY
    +CHANCE
    +COMMUNITY_CHEST
    +FREE_PASS
    +JAIL
    +GO_TO_JAIL
}


class Player {
    +properties: LinkedList<Property>
    +groups: LinkedList<String>

    +name: String
    +money: int
    +space: int

    +isBankrupt(): boolean
    +isInJail(): boolean
    +getOutOfJailCards(): int

    +moveForward(int spaces): boolean
    +moveBack(int spaces): boolean
    +rollSingleDie(): int

    +getPropertyByTitle(String title): Property
    +ownedPropertiesInGroup(String group): int
    +isGroupOwned(String group): boolean

    +purchaseProperty(Property property): PropertyPurchaseResult
    +tryPayRent(Property property): boolean

    +addOutOfJailCards(int amount)
    +goToJail()
    +exitJail()
    +tryExitJailWithCard(): boolean

    +goBankrupt(): int
}

class Property {
    +info: PropertyCard
    +isOwned: boolean
    +isGroupOwned: boolean

    +getRent(): int
    +getHouses(): int

    +addHouses(int amount): boolean
    +getCostForNewHouses(int amount): int

    +removeHouses(int amount): int
    +removeAllHouses(): int

    +revokeOwnership(): int
}

class RollResult<T> {
    +space: Space<T>
    +firstDie: int
    +secondDie: int
    +result: int
    +passedGo: boolean
}

class Space<T> {
    +data: T
    +type: SpaceType
}

class Card {
    +cardType: CardType
    +title: String
    +description: String
}

class ActionCard extends Card {
    +actionId: int
}

class PurchasableCard extends Card {
    +cost: int
    +purchased: boolean
}

class PropertyCard extends PurchasableCard {
    +group: String
    +amountInGroup: int

    +rent: int
    +rentWithGroup: int

    +houseCost: int
    +hotelCost: int

    +rentWithHouse: int
    +rentWithTwoHouses: int
    +rentWithThreeHouses: int
    +rentWithFourHouses: int
    +rentWithHotel: int
}

class GameHelper {
    +isGameFinished(): boolean

    +getCurrentPlayerIndex(): int
    +getCurrentPlayer(): Player

    +startNewGame(int playerCount)
    +startNewTurn()

    +rollTwoDice(): RollResult<Object>

    +useChanceCard(int actionId): boolean
    +useCommunityCard(int actionId): boolean

    +bankrupt(): int

    +finishTurn(): boolean
}

class Players {
    +players: LinkedList<Player>

    +playerCount(): int
    +getPlayerAt(int index): Player

    +getPropertyOwnerByTitle(String title): Player
}

class Spaces {
    +spaces: LinkedList<Space<Object>>

    +populateList()

    +getSpaceTypeFromString(String str): SpaceType
    +getPropertyCardFromString(String str): PropertyCard
}

class WildcardHelper {
    +chanceCards: LinkedList<ActionCard>
    +communityCards: LinkedList<ActionCard>

    +populateLists()
    +getWildCardFromString(String str, String name): ActionCard
}

object JDialog
class AllPropertiesDialog extends JDialog {
    +createDialog(Player player): AllPropertiesDialog
}

class BuildDialog extends JDialog {
    +createDialog(Player player): BuildDialog
}

class CurrentTurnDialog extends JDialog {
    +createDialog(): CurrentTurnDialog
}

class NewGameDialog extends JDialog {
    +createDialog(): NewGameDialog
}

class PropertySpaceDialog extends JDialog {
    +createDialog(Property property, Player player): PropertySpaceDialog
}

class RollResultDialog extends JDialog {
    +createDialog(int first, int second, boolean isInJail): RollResultDialog
}

class SimpleMessageDialog extends JDialog {
    +createDialog(String title, String header, String content): SimpleMessageDialog
}


class MainPage { }


class EntryPoint {
    +main(String[] args)
}


@enduml